<?xml version="1.0" encoding="utf-8"?>
<!-- Generator: Adobe Illustrator 26.1.0, SVG Export Plug-In . SVG Version: 6.00 Build 0)  -->
<svg version="1.1" id="Layer_1" xmlns="http://www.w3.org/2000/svg" xmlns:xlink="http://www.w3.org/1999/xlink" x="0px" y="0px"
	 viewBox="0 0 500 500" style="enable-background:new 0 0 500 500;" xml:space="preserve">
<style type="text/css">
	.st0{fill:none;stroke:#000000;stroke-width:9.7378;stroke-miterlimit:10;}
	.st1{fill:none;stroke:#000000;stroke-width:7.0515;stroke-miterlimit:10;}
	.st2{font-family:'Poppins-Medium';}
	.st3{font-size:91.7485px;}
	.st4{letter-spacing:-4.13;}
	.st5{letter-spacing:-5.17;}
	.st6{letter-spacing:-2.07;}
	.st7{letter-spacing:-3.1;}
</style>
<g>
	<g>
		<g>
			<path class="st0" d="M268.49,213.77c-1.83,0-3.53,0.86-4.51,2.27l-6.12,8.85l-7.7,11.12l-7.7-11.12l-6.12-8.85
				c-0.98-1.41-2.68-2.27-4.51-2.27h-9.32c-10,0-18.1-7.4-18.1-16.54v-52.47c0-9.13,8.1-16.54,18.1-16.54h55.3
				c10,0,18.1,7.4,18.1,16.54v52.48c0,9.13-8.1,16.54-18.1,16.54H268.49z"/>
			<rect x="232.48" y="153.18" width="5.86" height="43.36"/>
			<path class="st1" d="M244.5,152.97c-0.63,9.71-4.56,17.18-9.32,17.18c-4.75,0-8.69-7.47-9.32-17.18"/>
			<rect x="261.96" y="169.44" width="6.09" height="27.1"/>
			<ellipse class="st1" cx="265.25" cy="160.72" rx="7.79" ry="10.26"/>
		</g>
	</g>
	<text transform="matrix(0.9677 -2.342337e-03 2.257327e-03 1 31.5051 320.195)"><tspan x="0" y="0" class="st2 st3 st4">o</tspan><tspan x="53.86" y="0" class="st2 st3 st5">r</tspan><tspan x="83.31" y="0" class="st2 st3 st4">d</tspan><tspan x="140.83" y="0" class="st2 st3 st4">e</tspan><tspan x="192.85" y="0" class="st2 st3">r</tspan><tspan x="227.9" y="0" class="st2 st3 st6">t</tspan><tspan x="259.18" y="0" class="st2 st3 st5">a</tspan><tspan x="316.16" y="0" class="st2 st3 st5">k</tspan><tspan x="361.39" y="0" class="st2 st3 st7">e</tspan><tspan x="414.14" y="0" class="st2 st3 st6">r</tspan></text>
</g>
</svg>
