<?xml version="1.0" encoding="UTF-8"?><svg id="a" xmlns="http://www.w3.org/2000/svg" viewBox="0 0 1125 2436"><path d="M716.14,1315.46l56.33,30.45c.78,.42,1.75,.04,2.05-.79l45.48-130.91c1.11-3.2,3.59-5.74,6.76-6.93l109.69-41.14" fill="none" stroke="#000" stroke-linecap="round" stroke-miterlimit="10" stroke-width="6.02"/><path d="M408.86,1315.46l-54.95,29.71c-1.5,.81-3.37,.09-3.93-1.53l-45.33-130.48c-.88-2.54-2.85-4.56-5.37-5.5l-110.72-41.53" fill="none" stroke="#000" stroke-linecap="round" stroke-miterlimit="10" stroke-width="6.02"/><ellipse cx="562.55" cy="1218" rx="169.31" ry="159.58" fill="none" stroke="#f1a745" stroke-miterlimit="10" stroke-width="38.94"/><ellipse cx="562.37" cy="1217.53" rx="150.03" ry="140.94" fill="none" stroke="#000" stroke-miterlimit="10" stroke-width="1.98"/><line x1="562.37" y1="1076.59" x2="562.37" y2="1358.47" fill="none" stroke="#000" stroke-miterlimit="10" stroke-width=".5"/><line x1="660.17" y1="1110.65" x2="456.29" y2="1314.53" fill="none" stroke="#000" stroke-miterlimit="10" stroke-width=".5"/><line x1="712.4" y1="1208.45" x2="412.34" y2="1208.45" fill="none" stroke="#000" stroke-miterlimit="10" stroke-width=".5"/><line x1="668.45" y1="1314.53" x2="463.48" y2="1109.55" fill="none" stroke="#000" stroke-miterlimit="10" stroke-width=".5"/><path d="M549.57,1273.39s8.52-29.72,36.51-22.89" fill="none" stroke="#000" stroke-linecap="round" stroke-miterlimit="10" stroke-width="10.03"/><circle cx="517.64" cy="1195.03" r="11.44"/><circle cx="605.71" cy="1188.2" r="11.44"/><path d="M501.42,1154.92s-20.48,4.1-23.21,33.28" fill="none" stroke="#000" stroke-linecap="round" stroke-miterlimit="10" stroke-width="8.02"/><path d="M613.23,1142.88s20.72-2.64,32.6,24.16" fill="none" stroke="#000" stroke-linecap="round" stroke-miterlimit="10" stroke-width="8.02"/><circle cx="448.98" cy="1192.77" r="6.27" fill="#e48c00" stroke="#f1a745" stroke-miterlimit="10"/><circle cx="509.69" cy="1230.37" r="5.72" fill="#e48c00" stroke="#f1a745" stroke-miterlimit="10"/><circle cx="540.81" cy="1109.55" r="6.88" fill="#e48c00" stroke="#f1a745" stroke-miterlimit="10"/><circle cx="543.11" cy="1168.34" r="7.19" fill="#e48c00" stroke="#f1a745" stroke-miterlimit="10"/><circle cx="676.05" cy="1142.8" r="6.3" fill="#e48c00" stroke="#f1a745" stroke-miterlimit="10"/><circle cx="471.26" cy="1133.2" r="6.3" fill="#e48c00" stroke="#f1a745" stroke-miterlimit="10"/><circle cx="605.42" cy="1105.69" r="6.3" fill="#e48c00" stroke="#f1a745" stroke-miterlimit="10"/><circle cx="645.83" cy="1224.66" r="6.3" fill="#e48c00" stroke="#f1a745" stroke-miterlimit="10"/><circle cx="515.41" cy="1283.7" r="6.3" fill="#e48c00" stroke="#f1a745" stroke-miterlimit="10"/><circle cx="535.92" cy="1331.49" r="6.3" fill="#e48c00" stroke="#f1a745" stroke-miterlimit="10"/><circle cx="584.99" cy="1283.7" r="6.3" fill="#e48c00" stroke="#f1a745" stroke-miterlimit="10"/><circle cx="622.28" cy="1317.15" r="6.3" fill="#e48c00" stroke="#f1a745" stroke-miterlimit="10"/><circle cx="467.28" cy="1267.66" r="6.3" fill="#e48c00" stroke="#f1a745" stroke-miterlimit="10"/><circle cx="669.75" cy="1283.7" r="6.3" fill="#e48c00" stroke="#f1a745" stroke-miterlimit="10"/></svg>