<?xml version="1.0" encoding="UTF-8"?><svg id="a" xmlns="http://www.w3.org/2000/svg" viewBox="0 0 1125 2436"><path d="M756.87,1391.61c-1,0-1.98-.5-2.55-1.41-7.84-12.5-16.23-26.47-24.34-39.98-7.24-12.07-14.73-24.54-21.75-35.82-.88-1.41-.45-3.27,.97-4.14,1.41-.88,3.27-.44,4.14,.97,7.04,11.32,14.54,23.82,21.8,35.9,8.09,13.48,16.46,27.42,24.28,39.87,.88,1.41,.46,3.26-.95,4.15-.5,.31-1.05,.46-1.6,.46Z"/><path d="M368.13,1391.61c-.55,0-1.1-.15-1.6-.46-1.41-.88-1.83-2.74-.95-4.15,7.82-12.45,16.19-26.4,24.29-39.89,7.25-12.08,14.75-24.57,21.79-35.89,.88-1.41,2.73-1.84,4.14-.97,1.41,.88,1.84,2.73,.97,4.14-7.02,11.28-14.5,23.75-21.74,35.81-8.11,13.51-16.5,27.49-24.35,39.99-.57,.91-1.55,1.41-2.55,1.41Z"/><path d="M562.71,1386.02c-104.09,0-188.78-80.32-188.78-179.05s84.68-179.05,188.78-179.05,188.78,80.32,188.78,179.05c0,38.74-12.83,75.61-37.1,106.63-17.23,22.02-39.91,40.26-65.57,52.76-26.43,12.87-56.2,19.67-86.1,19.67Zm0-319.16c-82.62,0-149.84,62.85-149.84,140.11s67.22,140.11,149.84,140.11c47.61,0,92.84-21.49,121.01-57.48,18.86-24.1,28.83-52.67,28.83-82.63,0-77.26-67.22-140.11-149.84-140.11Z" fill="#f1a745"/><path d="M562.53,1348.44c-83.27,0-151.02-63.67-151.02-141.93s67.75-141.94,151.02-141.94,151.02,63.67,151.02,141.94-67.75,141.93-151.02,141.93Zm0-281.89c-82.18,0-149.04,62.78-149.04,139.95s66.86,139.95,149.04,139.95,149.04-62.78,149.04-139.95-66.86-139.95-149.04-139.95Z"/><rect x="562.28" y="1065.56" width=".5" height="281.89"/><rect x="414.22" y="1201.31" width="288.33" height=".5" transform="translate(-686.09 746.77) rotate(-45)"/><rect x="412.5" y="1197.17" width="300.05" height=".5"/><rect x="565.87" y="1056.08" width=".5" height="289.88" transform="translate(-683.43 752.08) rotate(-45)"/><circle cx="517.8" cy="1184" r="11.44"/><circle cx="605.87" cy="1177.18" r="11.44"/><path d="M478.37,1181.19c-.12,0-.25,0-.38-.02-2.21-.21-3.83-2.16-3.62-4.37,2.98-31.79,25.46-36.65,26.42-36.84,2.17-.43,4.29,.97,4.72,3.15,.43,2.16-.96,4.27-3.12,4.71-.78,.17-17.64,4.15-20.03,29.73-.19,2.08-1.94,3.64-3.99,3.64Z"/><path d="M645.99,1160.02c-1.54,0-3-.89-3.67-2.39-10.43-23.53-27.73-21.88-28.46-21.8-2.2,.25-4.18-1.32-4.44-3.51-.26-2.19,1.27-4.17,3.46-4.45,.97-.12,23.83-2.68,36.78,26.51,.9,2.03-.02,4.39-2.04,5.29-.53,.23-1.08,.35-1.62,.35Z"/><g><circle cx="449.14" cy="1181.74" r="6.27" fill="#e48c00"/><path d="M449.14,1188.52c-3.73,0-6.77-3.04-6.77-6.77s3.04-6.77,6.77-6.77,6.77,3.04,6.77,6.77-3.04,6.77-6.77,6.77Zm0-12.54c-3.18,0-5.77,2.59-5.77,5.77s2.59,5.77,5.77,5.77,5.77-2.59,5.77-5.77-2.59-5.77-5.77-5.77Z" fill="#f1a745"/></g><g><circle cx="509.85" cy="1219.35" r="5.72" fill="#e48c00"/><path d="M509.86,1225.56c-3.43,0-6.22-2.79-6.22-6.22s2.79-6.22,6.22-6.22,6.21,2.79,6.21,6.22-2.79,6.22-6.21,6.22Zm0-11.43c-2.88,0-5.22,2.34-5.22,5.22s2.34,5.22,5.22,5.22,5.21-2.34,5.21-5.22-2.34-5.22-5.21-5.22Z" fill="#f1a745"/></g><g><circle cx="540.97" cy="1098.53" r="6.88" fill="#e48c00"/><path d="M540.97,1105.91c-4.07,0-7.38-3.31-7.38-7.38s3.31-7.38,7.38-7.38,7.38,3.31,7.38,7.38-3.31,7.38-7.38,7.38Zm0-13.76c-3.52,0-6.38,2.86-6.38,6.38s2.86,6.38,6.38,6.38,6.38-2.86,6.38-6.38-2.86-6.38-6.38-6.38Z" fill="#f1a745"/></g><g><circle cx="543.27" cy="1157.32" r="7.19" fill="#e48c00"/><path d="M543.27,1165.01c-4.24,0-7.69-3.45-7.69-7.69s3.45-7.69,7.69-7.69,7.69,3.45,7.69,7.69-3.45,7.69-7.69,7.69Zm0-14.38c-3.69,0-6.69,3-6.69,6.69s3,6.69,6.69,6.69,6.69-3,6.69-6.69-3-6.69-6.69-6.69Z" fill="#f1a745"/></g><g><circle cx="676.21" cy="1131.78" r="6.3" fill="#e48c00"/><path d="M676.2,1138.57c-1.15,0-2.32-.29-3.39-.91-3.25-1.87-4.36-6.04-2.49-9.29,1.88-3.25,6.04-4.36,9.29-2.49,3.25,1.87,4.36,6.04,2.49,9.29h0c-1.26,2.18-3.55,3.4-5.9,3.4Zm.02-12.59c-2,0-3.96,1.04-5.03,2.9-1.6,2.77-.65,6.32,2.12,7.92,2.77,1.6,6.32,.65,7.92-2.12h0c1.6-2.77,.65-6.32-2.12-7.92-.91-.53-1.91-.78-2.89-.78Z" fill="#f1a745"/></g><g><circle cx="471.42" cy="1122.17" r="6.3" fill="#e48c00"/><path d="M471.4,1128.97c-1.18,0-2.34-.31-3.39-.91-1.57-.91-2.7-2.37-3.17-4.13-.47-1.75-.23-3.59,.68-5.16,1.87-3.25,6.04-4.36,9.29-2.49,1.57,.91,2.7,2.37,3.17,4.13,.47,1.75,.23,3.59-.68,5.16h0c-.91,1.57-2.37,2.7-4.13,3.17-.58,.16-1.18,.23-1.77,.23Zm.02-12.6c-2.01,0-3.96,1.04-5.03,2.9-.77,1.34-.98,2.9-.58,4.4,.4,1.5,1.36,2.75,2.7,3.52,1.34,.78,2.91,.98,4.4,.58,1.5-.4,2.75-1.36,3.52-2.7h0c.77-1.34,.98-2.9,.58-4.4-.4-1.5-1.36-2.75-2.7-3.52-.91-.53-1.91-.78-2.89-.78Z" fill="#f1a745"/></g><g><circle cx="605.58" cy="1094.67" r="6.3" fill="#e48c00"/><path d="M605.57,1101.46c-1.15,0-2.32-.29-3.39-.91-3.25-1.87-4.36-6.04-2.49-9.29,1.87-3.25,6.04-4.36,9.29-2.49,1.57,.91,2.7,2.37,3.17,4.13,.47,1.75,.23,3.59-.68,5.16h0c-1.26,2.18-3.55,3.4-5.9,3.4Zm.02-12.59c-2,0-3.96,1.04-5.03,2.9-1.6,2.77-.65,6.32,2.12,7.92,2.77,1.6,6.32,.65,7.92-2.12h0c.77-1.34,.98-2.9,.58-4.4-.4-1.5-1.36-2.75-2.7-3.52-.91-.53-1.91-.78-2.89-.78Z" fill="#f1a745"/></g><g><circle cx="645.99" cy="1213.63" r="6.3" fill="#e48c00"/><path d="M645.98,1220.43c-1.15,0-2.32-.29-3.39-.91-1.57-.91-2.7-2.37-3.17-4.13-.47-1.75-.23-3.59,.68-5.16,1.88-3.25,6.04-4.36,9.29-2.49,3.25,1.87,4.36,6.04,2.49,9.29h0c-1.26,2.18-3.55,3.4-5.9,3.4Zm.02-12.59c-2,0-3.96,1.04-5.03,2.9-.77,1.34-.98,2.9-.58,4.4s1.36,2.75,2.7,3.52c2.77,1.6,6.32,.65,7.92-2.12h0c1.6-2.77,.65-6.32-2.12-7.92-.91-.53-1.91-.78-2.89-.78Z" fill="#f1a745"/></g><g><circle cx="515.57" cy="1272.67" r="6.3" fill="#e48c00"/><path d="M515.56,1279.47c-1.15,0-2.32-.29-3.39-.91-3.25-1.87-4.36-6.04-2.49-9.29s6.04-4.36,9.29-2.49c3.25,1.87,4.36,6.04,2.49,9.29-1.26,2.18-3.55,3.4-5.9,3.4Zm.02-12.59c-2.01,0-3.96,1.04-5.03,2.9-1.6,2.77-.65,6.32,2.12,7.92,2.77,1.6,6.32,.65,7.92-2.12,1.6-2.77,.65-6.32-2.12-7.92-.91-.53-1.91-.78-2.89-.78Z" fill="#f1a745"/></g><g><circle cx="536.08" cy="1320.46" r="6.3" fill="#e48c00"/><path d="M536.09,1327.26c-.45,0-.91-.05-1.37-.14-1.78-.36-3.31-1.39-4.32-2.91s-1.36-3.33-1-5.11c.36-1.78,1.39-3.31,2.91-4.31,1.51-1,3.33-1.36,5.11-1,1.78,.36,3.31,1.39,4.32,2.91h0c1,1.51,1.36,3.33,1,5.11-.36,1.78-1.39,3.31-2.91,4.32-1.13,.75-2.42,1.13-3.74,1.13Zm-.03-12.6c-1.13,0-2.23,.33-3.19,.97-1.29,.86-2.17,2.16-2.48,3.68s0,3.06,.85,4.36c.86,1.29,2.16,2.17,3.68,2.48,1.52,.31,3.07,0,4.36-.85,1.29-.86,2.17-2.16,2.48-3.68,.31-1.52,0-3.06-.85-4.36h0c-.86-1.29-2.16-2.17-3.68-2.48-.39-.08-.78-.12-1.17-.12Z" fill="#f1a745"/></g><g><circle cx="585.15" cy="1272.67" r="6.3" fill="#e48c00"/><path d="M585.14,1279.47c-1.46,0-2.92-.47-4.16-1.43-1.43-1.11-2.35-2.72-2.58-4.52s.26-3.58,1.38-5.02c1.11-1.43,2.72-2.35,4.52-2.58,1.8-.23,3.58,.26,5.02,1.38,1.43,1.11,2.35,2.72,2.58,4.52s-.26,3.58-1.38,5.02c-1.34,1.72-3.35,2.62-5.38,2.63Zm.02-12.6c-.24,0-.49,.02-.74,.05-1.54,.19-2.91,.97-3.86,2.2-.95,1.22-1.37,2.74-1.17,4.28,.19,1.54,.97,2.91,2.2,3.86,2.53,1.96,6.18,1.5,8.14-1.02,1.96-2.53,1.5-6.18-1.02-8.14h0c-1.03-.8-2.26-1.22-3.54-1.22Z" fill="#f1a745"/></g><g><circle cx="622.44" cy="1306.13" r="6.3" fill="#e48c00"/><path d="M622.43,1312.93c-1.5,0-2.95-.5-4.16-1.43-2.96-2.3-3.5-6.58-1.2-9.54,1.11-1.43,2.72-2.35,4.52-2.58,1.8-.23,3.58,.26,5.02,1.38,1.43,1.11,2.35,2.72,2.58,4.52s-.26,3.58-1.38,5.02c-1.11,1.43-2.72,2.35-4.52,2.58-.29,.04-.58,.05-.86,.05Zm.03-12.6c-.24,0-.49,.02-.74,.05-1.54,.19-2.91,.97-3.86,2.2-1.96,2.53-1.5,6.17,1.02,8.14,1.22,.95,2.74,1.37,4.28,1.17,1.54-.19,2.91-.97,3.86-2.2,.95-1.22,1.37-2.74,1.17-4.28-.19-1.54-.97-2.91-2.2-3.86h0c-1.03-.8-2.26-1.22-3.54-1.22Z" fill="#f1a745"/></g><g><circle cx="467.44" cy="1256.63" r="6.3" fill="#e48c00"/><path d="M467.43,1263.43c-1.15,0-2.32-.29-3.39-.91-1.57-.91-2.7-2.37-3.17-4.13-.47-1.75-.23-3.59,.68-5.16,.91-1.57,2.37-2.7,4.13-3.17,1.75-.47,3.59-.23,5.16,.68,3.25,1.87,4.36,6.04,2.49,9.29-1.26,2.18-3.55,3.4-5.9,3.4Zm.02-12.6c-.5,0-1.01,.07-1.51,.2-1.5,.4-2.75,1.36-3.52,2.7-.77,1.34-.98,2.9-.58,4.4,.4,1.5,1.36,2.75,2.7,3.52,2.77,1.6,6.32,.65,7.92-2.12,1.6-2.77,.65-6.32-2.12-7.92-.89-.52-1.88-.78-2.89-.78Z" fill="#f1a745"/></g><g><circle cx="669.91" cy="1272.67" r="6.3" fill="#e48c00"/><path d="M669.9,1279.47c-1.15,0-2.32-.29-3.39-.91-3.25-1.87-4.36-6.04-2.49-9.29,.91-1.57,2.37-2.7,4.13-3.17,1.75-.47,3.58-.23,5.16,.68,3.25,1.87,4.36,6.04,2.49,9.29-1.26,2.18-3.55,3.4-5.9,3.4Zm.02-12.6c-.5,0-1.01,.07-1.51,.2-1.5,.4-2.75,1.36-3.52,2.7-1.6,2.77-.65,6.32,2.12,7.92,2.77,1.6,6.32,.65,7.92-2.12,1.6-2.77,.65-6.32-2.12-7.92-.89-.52-1.88-.78-2.89-.78Z" fill="#f1a745"/></g><path d="M558.39,1247.19c-7.28,0-12.97-7.25-12.97-16.51s5.7-16.51,12.97-16.51,12.97,7.25,12.97,16.51-5.7,16.51-12.97,16.51Zm0-26.02c-3.18,0-5.97,4.44-5.97,9.51s2.79,9.51,5.97,9.51,5.97-4.44,5.97-9.51-2.79-9.51-5.97-9.51Z"/><path d="M368.14,1391.61c-1.06,0-2.09-.57-2.64-1.56-.8-1.46-.26-3.29,1.19-4.08,64.94-35.56,131.06-71.37,195.01-106,23.96-12.98,47.93-25.96,71.89-38.96,1.46-.79,3.29-.25,4.08,1.21,.79,1.46,.25,3.29-1.21,4.08-23.97,13-47.94,25.98-71.9,38.96-63.94,34.63-130.05,70.43-194.98,105.99-.46,.25-.95,.37-1.44,.37Z"/><path d="M756.86,1391.61c-.49,0-.98-.12-1.44-.37-64.94-35.57-131.07-71.38-195.02-106.01-23.95-12.97-47.9-25.94-71.86-38.94-1.46-.79-2-2.62-1.21-4.08,.79-1.46,2.62-2,4.08-1.21,23.96,12.99,47.91,25.96,71.86,38.93,63.96,34.64,130.09,70.45,195.04,106.02,1.46,.8,1.99,2.63,1.19,4.08-.55,1-1.58,1.56-2.64,1.56Z"/></svg>