<?xml version="1.0" encoding="UTF-8"?><svg id="a" xmlns="http://www.w3.org/2000/svg" viewBox="0 0 1125 2436"><path d="M773.15,1349.09c-.73,0-1.46-.18-2.11-.54l-56.33-30.45c-1.46-.79-2.01-2.62-1.22-4.08,.79-1.46,2.61-2.01,4.08-1.22l54.71,29.58,44.88-129.17c1.41-4.06,4.52-7.25,8.54-8.75l109.69-41.14c1.55-.59,3.29,.2,3.87,1.76,.58,1.56-.2,3.29-1.76,3.87l-109.69,41.14c-2.34,.88-4.15,2.73-4.97,5.1l-45.48,130.91c-.43,1.24-1.38,2.21-2.59,2.69-.52,.2-1.07,.3-1.61,.3Z"/><path d="M352.59,1348.51c-.71,0-1.42-.13-2.09-.39-1.58-.61-2.81-1.89-3.37-3.49l-45.33-130.48c-.59-1.7-1.9-3.04-3.58-3.67l-110.72-41.53c-1.56-.58-2.34-2.32-1.76-3.87,.58-1.56,2.32-2.34,3.87-1.76l110.72,41.53c3.37,1.26,5.97,3.93,7.15,7.33l45.24,130.21,54.71-29.57c1.46-.79,3.29-.25,4.08,1.22,.79,1.46,.25,3.29-1.22,4.08l-54.95,29.71c-.85,.46-1.8,.7-2.75,.7Z"/><path d="M562.55,1397.05c-104.09,0-188.78-80.32-188.78-179.05s84.68-179.05,188.78-179.05,188.78,80.32,188.78,179.05-84.68,179.05-188.78,179.05Zm0-319.16c-82.62,0-149.84,62.85-149.84,140.11s67.22,140.11,149.84,140.11,149.84-62.85,149.84-140.11-67.22-140.11-149.84-140.11Z" fill="#f1a745"/><path d="M562.37,1359.46c-83.27,0-151.02-63.67-151.02-141.93s67.75-141.94,151.02-141.94,151.02,63.67,151.02,141.94-67.75,141.93-151.02,141.93Zm0-281.89c-82.18,0-149.03,62.78-149.03,139.95s66.86,139.95,149.03,139.95,149.04-62.78,149.04-139.95-66.86-139.95-149.04-139.95Z"/><rect x="562.12" y="1076.59" width=".5" height="281.89"/><rect x="414.06" y="1212.34" width="288.33" height=".5" transform="translate(-693.93 749.89) rotate(-45)"/><rect x="412.34" y="1208.2" width="300.05" height=".5"/><rect x="565.71" y="1067.1" width=".5" height="289.88" transform="translate(-691.28 755.2) rotate(-45)"/><path d="M549.57,1278.4c-.46,0-.93-.06-1.39-.2-2.65-.77-4.19-3.53-3.43-6.19,3.4-11.88,16.67-32.68,42.51-26.38,2.69,.66,4.34,3.37,3.68,6.06-.66,2.69-3.37,4.33-6.06,3.68-22.88-5.59-30.2,18.39-30.5,19.41-.64,2.19-2.64,3.61-4.81,3.61Z"/><circle cx="517.64" cy="1195.03" r="11.44"/><circle cx="605.71" cy="1188.2" r="11.44"/><path d="M478.21,1192.21c-.12,0-.25,0-.38-.02-2.21-.21-3.83-2.16-3.62-4.37,2.97-31.79,25.46-36.65,26.42-36.84,2.17-.44,4.29,.97,4.72,3.15,.43,2.16-.96,4.27-3.12,4.71-.77,.17-17.64,4.14-20.03,29.73-.19,2.08-1.94,3.64-3.99,3.64Z"/><path d="M645.83,1171.05c-1.54,0-3-.89-3.67-2.39-10.43-23.53-27.73-21.88-28.46-21.8-2.19,.25-4.18-1.32-4.44-3.51-.26-2.19,1.27-4.17,3.46-4.45,.97-.12,23.83-2.68,36.78,26.51,.9,2.03-.02,4.39-2.04,5.29-.53,.23-1.08,.35-1.62,.35Z"/><g><circle cx="448.98" cy="1192.77" r="6.27" fill="#e48c00"/><path d="M448.98,1199.54c-3.73,0-6.77-3.04-6.77-6.77s3.04-6.77,6.77-6.77,6.77,3.04,6.77,6.77-3.04,6.77-6.77,6.77Zm0-12.54c-3.18,0-5.77,2.59-5.77,5.77s2.59,5.77,5.77,5.77,5.77-2.59,5.77-5.77-2.59-5.77-5.77-5.77Z" fill="#f1a745"/></g><g><circle cx="509.69" cy="1230.37" r="5.72" fill="#e48c00"/><path d="M509.7,1236.59c-3.43,0-6.22-2.79-6.22-6.21s2.79-6.22,6.22-6.22,6.21,2.79,6.21,6.22-2.79,6.21-6.21,6.21Zm0-11.43c-2.88,0-5.22,2.34-5.22,5.22s2.34,5.21,5.22,5.21,5.21-2.34,5.21-5.21-2.34-5.22-5.21-5.22Z" fill="#f1a745"/></g><g><circle cx="540.81" cy="1109.55" r="6.88" fill="#e48c00"/><path d="M540.81,1116.93c-4.07,0-7.38-3.31-7.38-7.38s3.31-7.38,7.38-7.38,7.38,3.31,7.38,7.38-3.31,7.38-7.38,7.38Zm0-13.76c-3.52,0-6.38,2.86-6.38,6.38s2.86,6.38,6.38,6.38,6.38-2.86,6.38-6.38-2.86-6.38-6.38-6.38Z" fill="#f1a745"/></g><g><circle cx="543.11" cy="1168.34" r="7.19" fill="#e48c00"/><path d="M543.11,1176.04c-4.24,0-7.69-3.45-7.69-7.69s3.45-7.69,7.69-7.69,7.69,3.45,7.69,7.69-3.45,7.69-7.69,7.69Zm0-14.38c-3.69,0-6.69,3-6.69,6.69s3,6.69,6.69,6.69,6.69-3,6.69-6.69-3-6.69-6.69-6.69Z" fill="#f1a745"/></g><g><circle cx="676.05" cy="1142.8" r="6.3" fill="#e48c00"/><path d="M676.04,1149.6c-1.15,0-2.32-.29-3.39-.91-3.25-1.87-4.36-6.04-2.49-9.29,.91-1.57,2.37-2.7,4.13-3.17,1.75-.47,3.59-.23,5.16,.68s2.7,2.37,3.17,4.13c.47,1.75,.23,3.59-.68,5.16h0c-1.26,2.18-3.55,3.4-5.9,3.4Zm.02-12.6c-.5,0-1.01,.07-1.51,.2-1.5,.4-2.75,1.36-3.52,2.7-1.6,2.77-.65,6.32,2.12,7.92,2.76,1.6,6.32,.65,7.92-2.12h0c.77-1.34,.98-2.9,.58-4.4-.4-1.5-1.36-2.75-2.7-3.52-.89-.52-1.88-.78-2.89-.78Z" fill="#f1a745"/></g><g><circle cx="471.26" cy="1133.2" r="6.3" fill="#e48c00"/><path d="M471.24,1139.99c-1.15,0-2.32-.29-3.39-.91-1.57-.91-2.7-2.37-3.17-4.13-.47-1.75-.23-3.59,.68-5.16,1.87-3.25,6.04-4.36,9.29-2.49,3.25,1.87,4.36,6.04,2.49,9.29h0c-1.26,2.18-3.55,3.4-5.9,3.4Zm.02-12.59c-2.01,0-3.96,1.04-5.03,2.9-.77,1.34-.98,2.9-.58,4.4,.4,1.5,1.36,2.75,2.7,3.52,2.77,1.6,6.32,.65,7.92-2.12h0c1.6-2.77,.65-6.32-2.12-7.92-.91-.53-1.91-.78-2.89-.78Z" fill="#f1a745"/></g><g><circle cx="605.42" cy="1105.69" r="6.3" fill="#e48c00"/><path d="M605.41,1112.49c-1.18,0-2.34-.31-3.39-.91-1.57-.91-2.7-2.37-3.17-4.13-.47-1.75-.23-3.59,.68-5.16,1.87-3.24,6.04-4.36,9.29-2.49,3.25,1.87,4.36,6.04,2.49,9.29h0c-.91,1.57-2.37,2.7-4.13,3.17-.59,.16-1.18,.23-1.77,.23Zm.02-12.6c-2.01,0-3.96,1.04-5.03,2.9-.77,1.34-.98,2.9-.58,4.4,.4,1.5,1.36,2.75,2.7,3.52,1.34,.77,2.9,.98,4.4,.58,1.5-.4,2.75-1.36,3.52-2.7h0c1.6-2.77,.65-6.32-2.12-7.92-.91-.53-1.91-.78-2.89-.78Z" fill="#f1a745"/></g><g><circle cx="645.83" cy="1224.66" r="6.3" fill="#e48c00"/><path d="M645.82,1231.46c-1.18,0-2.34-.31-3.39-.91-1.57-.91-2.7-2.37-3.17-4.13-.47-1.75-.23-3.59,.68-5.16,1.88-3.25,6.04-4.36,9.29-2.49,3.25,1.87,4.36,6.04,2.49,9.29-.91,1.57-2.37,2.7-4.13,3.17-.59,.16-1.18,.23-1.77,.23Zm.02-12.6c-2,0-3.96,1.04-5.03,2.9-.77,1.34-.98,2.9-.58,4.4,.4,1.5,1.36,2.75,2.7,3.52,1.34,.77,2.9,.98,4.4,.58,1.5-.4,2.75-1.36,3.52-2.7,1.6-2.77,.65-6.32-2.12-7.92-.91-.53-1.91-.78-2.89-.78Z" fill="#f1a745"/></g><g><circle cx="515.41" cy="1283.7" r="6.3" fill="#e48c00"/><path d="M515.4,1290.5c-1.15,0-2.32-.29-3.39-.91-3.25-1.87-4.36-6.04-2.49-9.29,1.87-3.25,6.04-4.36,9.29-2.49,3.25,1.87,4.36,6.04,2.49,9.29h0c-1.26,2.18-3.55,3.4-5.9,3.4Zm.02-12.59c-2,0-3.96,1.04-5.03,2.9-1.6,2.77-.65,6.32,2.12,7.92,2.77,1.6,6.32,.65,7.92-2.12,1.6-2.77,.65-6.32-2.12-7.92-.91-.53-1.91-.78-2.89-.78Z" fill="#f1a745"/></g><g><circle cx="535.92" cy="1331.49" r="6.3" fill="#e48c00"/><path d="M535.93,1338.29c-.45,0-.91-.05-1.37-.14-1.78-.36-3.31-1.39-4.32-2.91-2.07-3.12-1.21-7.35,1.91-9.42,3.12-2.07,7.35-1.21,9.42,1.91h0c2.07,3.12,1.21,7.35-1.91,9.42-1.13,.75-2.42,1.13-3.74,1.13Zm-.02-12.6c-1.1,0-2.21,.31-3.19,.96-2.67,1.77-3.4,5.37-1.63,8.04,.86,1.29,2.16,2.17,3.68,2.48,1.52,.31,3.06,0,4.36-.85,2.67-1.77,3.4-5.37,1.63-8.04h0c-1.11-1.68-2.96-2.59-4.84-2.59Z" fill="#f1a745"/></g><g><circle cx="584.99" cy="1283.7" r="6.3" fill="#e48c00"/><path d="M584.97,1290.5c-1.5,0-2.95-.5-4.16-1.43-2.96-2.3-3.5-6.58-1.2-9.54,1.11-1.43,2.72-2.35,4.52-2.58,1.8-.23,3.58,.26,5.02,1.38h0c1.43,1.11,2.35,2.72,2.58,4.52s-.26,3.58-1.38,5.02c-1.11,1.43-2.72,2.35-4.52,2.58-.29,.04-.58,.05-.86,.05Zm.03-12.6c-.24,0-.49,.02-.74,.05-1.54,.19-2.91,.97-3.86,2.2-1.96,2.53-1.5,6.17,1.02,8.14,1.22,.95,2.74,1.37,4.28,1.17,1.54-.19,2.91-.97,3.86-2.2,.95-1.22,1.37-2.74,1.17-4.28-.19-1.54-.97-2.91-2.2-3.86h0c-1.03-.8-2.26-1.22-3.54-1.22Z" fill="#f1a745"/></g><g><circle cx="622.28" cy="1317.15" r="6.3" fill="#e48c00"/><path d="M622.27,1323.95c-1.5,0-2.95-.49-4.16-1.43-1.43-1.11-2.35-2.72-2.58-4.52s.26-3.58,1.38-5.02c2.3-2.96,6.58-3.5,9.54-1.2,1.43,1.11,2.35,2.72,2.58,4.52s-.26,3.58-1.38,5.02c-1.11,1.43-2.72,2.35-4.52,2.58-.29,.04-.58,.05-.86,.05Zm.02-12.59c-1.73,0-3.45,.77-4.59,2.24-.95,1.22-1.37,2.74-1.17,4.28,.19,1.54,.97,2.91,2.2,3.86,1.22,.95,2.75,1.36,4.28,1.17,1.54-.19,2.91-.97,3.86-2.2,.95-1.22,1.37-2.74,1.17-4.28-.19-1.54-.97-2.91-2.2-3.86h0c-1.06-.82-2.31-1.22-3.55-1.22Z" fill="#f1a745"/></g><g><circle cx="467.28" cy="1267.66" r="6.3" fill="#e48c00"/><path d="M467.27,1274.46c-1.15,0-2.32-.29-3.39-.91-1.57-.91-2.7-2.37-3.17-4.13-.47-1.75-.23-3.59,.68-5.16,1.88-3.25,6.04-4.37,9.29-2.49,3.25,1.87,4.36,6.04,2.49,9.29-1.26,2.18-3.55,3.4-5.9,3.4Zm.02-12.59c-2.01,0-3.96,1.04-5.03,2.9-.77,1.34-.98,2.9-.58,4.4,.4,1.5,1.36,2.75,2.7,3.52,2.77,1.6,6.32,.65,7.92-2.12,1.6-2.77,.65-6.32-2.12-7.92-.91-.53-1.91-.78-2.89-.78Z" fill="#f1a745"/></g><g><circle cx="669.75" cy="1283.7" r="6.3" fill="#e48c00"/><path d="M669.74,1290.5c-1.15,0-2.32-.29-3.39-.91-3.25-1.87-4.36-6.04-2.49-9.29,1.87-3.25,6.04-4.36,9.29-2.49,3.25,1.87,4.36,6.04,2.49,9.29h0c-1.26,2.18-3.55,3.4-5.9,3.4Zm.02-12.59c-2.01,0-3.96,1.04-5.03,2.9-1.6,2.77-.65,6.32,2.12,7.92,2.77,1.6,6.32,.65,7.92-2.12,1.6-2.77,.65-6.32-2.12-7.92-.91-.53-1.91-.78-2.89-.78Z" fill="#f1a745"/></g></svg>