<?xml version="1.0" encoding="UTF-8"?><svg id="a" xmlns="http://www.w3.org/2000/svg" viewBox="0 0 1125 2436"><path d="M710.78,1312.82c14.87,23.9,31.23,52.13,46.09,75.79" fill="none" stroke="#000" stroke-linecap="round" stroke-miterlimit="10" stroke-width="6.02"/><path d="M414.22,1312.82c-14.87,23.9-31.23,52.13-46.09,75.79" fill="none" stroke="#000" stroke-linecap="round" stroke-miterlimit="10" stroke-width="6.02"/><path d="M732.01,1206.97c0,35.42-12.25,68.15-32.96,94.63-30.83,39.4-80.42,64.95-136.34,64.95-93.51,0-169.31-71.45-169.31-159.58s75.8-159.58,169.31-159.58,169.31,71.45,169.31,159.58Z" fill="none" stroke="#f1a745" stroke-miterlimit="10" stroke-width="38.94"/><ellipse cx="562.53" cy="1206.5" rx="150.03" ry="140.94" fill="none" stroke="#000" stroke-miterlimit="10" stroke-width="1.98"/><line x1="562.53" y1="1065.56" x2="562.53" y2="1347.45" fill="none" stroke="#000" stroke-miterlimit="10" stroke-width=".5"/><line x1="660.33" y1="1099.63" x2="456.45" y2="1303.51" fill="none" stroke="#000" stroke-miterlimit="10" stroke-width=".5"/><line x1="712.56" y1="1197.42" x2="412.5" y2="1197.42" fill="none" stroke="#000" stroke-miterlimit="10" stroke-width=".5"/><line x1="668.61" y1="1303.51" x2="463.64" y2="1098.53" fill="none" stroke="#000" stroke-miterlimit="10" stroke-width=".5"/><circle cx="517.8" cy="1184" r="11.44"/><circle cx="605.87" cy="1177.18" r="11.44"/><path d="M501.58,1143.89s-20.48,4.1-23.21,33.28" fill="none" stroke="#000" stroke-linecap="round" stroke-miterlimit="10" stroke-width="8.02"/><path d="M613.39,1131.85s20.72-2.64,32.6,24.16" fill="none" stroke="#000" stroke-linecap="round" stroke-miterlimit="10" stroke-width="8.02"/><circle cx="449.14" cy="1181.74" r="6.27" fill="#e48c00" stroke="#f1a745" stroke-miterlimit="10"/><circle cx="509.85" cy="1219.35" r="5.72" fill="#e48c00" stroke="#f1a745" stroke-miterlimit="10"/><circle cx="540.97" cy="1098.53" r="6.88" fill="#e48c00" stroke="#f1a745" stroke-miterlimit="10"/><circle cx="543.27" cy="1157.32" r="7.19" fill="#e48c00" stroke="#f1a745" stroke-miterlimit="10"/><circle cx="676.21" cy="1131.78" r="6.3" fill="#e48c00" stroke="#f1a745" stroke-miterlimit="10"/><circle cx="471.42" cy="1122.17" r="6.3" fill="#e48c00" stroke="#f1a745" stroke-miterlimit="10"/><circle cx="605.58" cy="1094.67" r="6.3" fill="#e48c00" stroke="#f1a745" stroke-miterlimit="10"/><circle cx="645.99" cy="1213.63" r="6.3" fill="#e48c00" stroke="#f1a745" stroke-miterlimit="10"/><circle cx="515.57" cy="1272.67" r="6.3" fill="#e48c00" stroke="#f1a745" stroke-miterlimit="10"/><circle cx="536.08" cy="1320.46" r="6.3" fill="#e48c00" stroke="#f1a745" stroke-miterlimit="10"/><circle cx="585.15" cy="1272.67" r="6.3" fill="#e48c00" stroke="#f1a745" stroke-miterlimit="10"/><circle cx="622.44" cy="1306.13" r="6.3" fill="#e48c00" stroke="#f1a745" stroke-miterlimit="10"/><circle cx="467.44" cy="1256.63" r="6.3" fill="#e48c00" stroke="#f1a745" stroke-miterlimit="10"/><circle cx="669.91" cy="1272.67" r="6.3" fill="#e48c00" stroke="#f1a745" stroke-miterlimit="10"/><ellipse cx="558.39" cy="1230.68" rx="9.47" ry="13.01" fill="none" stroke="#000" stroke-linecap="round" stroke-miterlimit="10" stroke-width="7"/><path d="M368.14,1388.6c88.85-48.66,177.85-96.66,266.89-144.95" fill="none" stroke="#000" stroke-linecap="round" stroke-miterlimit="10" stroke-width="6.02"/><path d="M756.86,1388.6c-88.85-48.66-177.85-96.66-266.89-144.95" fill="none" stroke="#000" stroke-linecap="round" stroke-miterlimit="10" stroke-width="6.02"/></svg>